<?xml version="1.0" encoding="UTF-8"?>
<svg id="L" xmlns="http://www.w3.org/2000/svg" viewBox="0 0 580.66 441.44">
  <defs>
    <style>
      .cls-1 {
        fill: #fff;
      }

      .cls-2 {
        fill: #b8872c;
      }

      .cls-3 {
        fill: #c1912d;
      }

      .cls-4 {
        fill: #dcb763;
      }

      .cls-5 {
        fill: #fcde81;
      }

      .cls-6 {
        fill: #fcce0b;
      }

      .cls-7 {
        fill: #231f20;
      }
    </style>
  </defs>
  <g>
    <polygon class="cls-3" points="0 63.54 209.39 166.85 209.39 441.44 0 337.57 0 63.54"/>
    <polygon class="cls-6" points="209.39 441.44 580.66 376.8 580.66 101.66 209.39 166.85 209.39 441.44"/>
    <polygon class="cls-5" points="0 63.54 375.14 0 580.66 101.66 209.39 166.85 0 63.54"/>
  </g>
  <g>
    <polygon class="cls-2" points="121.11 123.29 121.11 191.91 84.7 175.45 84.7 105.33 121.11 123.29"/>
    <polygon class="cls-4" points="84.7 105.33 454.26 39.14 490.34 56.98 121.11 123.29 84.7 105.33"/>
  </g>
  <g>
    <polygon class="cls-1" points="319.15 375.14 536.46 337.3 536.46 211.63 319.15 249.79 319.15 375.14"/>
    <g>
      <polygon class="cls-7" points="371.02 262.03 371.02 340.36 339.17 344.65 339.17 266.29 371.02 261.97 371.02 262.03"/>
      <polygon class="cls-7" points="388.59 337.89 388.59 259.59 396.07 258.57 396.07 258.49 396.07 336.99 388.59 338 388.59 337.89"/>
      <polygon class="cls-7" points="407.16 335.5 423.16 333.35 423.16 254.82 423.16 254.9 407.15 257.07 407.15 335.41 407.16 335.5"/>
      <polygon class="cls-7" points="445.67 330.32 482.84 325.32 482.84 325.45 482.84 246.8 445.9 251.81 445.9 330.32 445.67 330.32"/>
      <polygon class="cls-7" points="498.67 244.71 498.67 323.19 515 321 515 242.44 498.67 244.65 498.67 244.71"/>
    </g>
  </g>
</svg>