<?xml version="1.0" encoding="UTF-8"?>
<svg id="S" xmlns="http://www.w3.org/2000/svg" viewBox="0 0 580.66 441.44">
  <defs>
    <style>
      .cls-1 {
        fill: #fff;
      }

      .cls-2 {
        fill: #b8872c;
      }

      .cls-3 {
        fill: #c1912d;
      }

      .cls-4 {
        fill: #dcb763;
      }

      .cls-5 {
        fill: #fcde81;
      }

      .cls-6 {
        fill: #fcce0b;
      }

      .cls-7 {
        fill: #231f20;
      }
    </style>
  </defs>
  <g>
    <polygon class="cls-3" points="0 169.54 185.42 255.69 185.42 342.83 0 248.62 0 169.54"/>
    <polygon class="cls-6" points="185.42 342.83 580.66 270.32 580.66 181.47 185.42 255.69 185.42 342.83"/>
    <polygon class="cls-5" points="0 169.54 399.68 98.6 580.66 181.47 185.42 255.69 0 169.54"/>
  </g>
  <g>
    <polygon class="cls-2" points="109.97 220.64 109.97 289.26 73.56 272.8 73.56 202.68 109.97 220.64"/>
    <polygon class="cls-4" points="73.56 202.68 464.78 127.48 500.86 145.33 109.97 220.64 73.56 202.68"/>
  </g>
  <g>
    <polygon class="cls-1" points="438.57 284.19 565.72 259.34 565.72 212.68 438.57 237.15 438.57 284.19"/>
    <g>
      <polygon class="cls-7" points="469.17 239.26 469.17 268.57 450.4 271.76 450.4 242.38 469.17 239.23 469.17 239.26"/>
      <polygon class="cls-7" points="479.5 266.78 479.5 237.5 483.89 236.76 483.89 236.73 483.89 266.08 479.5 266.82 479.5 266.78"/>
      <polygon class="cls-7" points="490.4 264.98 499.77 263.39 499.77 234.07 499.77 234.1 490.39 235.67 490.39 264.95 490.4 264.98"/>
      <polygon class="cls-7" points="512.93 261.16 534.6 257.49 534.6 257.54 534.6 228.26 513.07 231.87 513.07 261.15 512.93 261.16"/>
      <polygon class="cls-7" points="543.81 226.74 543.81 255.93 553.29 254.32 553.29 225.12 543.81 226.72 543.81 226.74"/>
    </g>
  </g>
</svg>