<?xml version="1.0" encoding="UTF-8"?>
<svg id="M" xmlns="http://www.w3.org/2000/svg" viewBox="0 0 580.66 441.44">
  <defs>
    <style>
      .cls-1 {
        fill: #fff;
      }

      .cls-2 {
        fill: #b8872c;
      }

      .cls-3 {
        fill: #c1912d;
      }

      .cls-4 {
        fill: #dcb763;
      }

      .cls-5 {
        fill: #fcde81;
      }

      .cls-6 {
        fill: #fcce0b;
      }

      .cls-7 {
        fill: #231f20;
      }
    </style>
  </defs>
  <g>
    <polygon class="cls-3" points="0 127.08 172.98 213.18 172.98 386.74 0 301.27 0 127.08"/>
    <polygon class="cls-6" points="172.98 386.74 580.66 340.49 580.66 141.44 172.98 213.18 172.98 386.74"/>
    <polygon class="cls-5" points="0 127.08 407.15 54.7 580.66 141.44 172.98 213.18 0 127.08"/>
  </g>
  <g>
    <polygon class="cls-2" points="103.07 177.89 103.07 246.51 66.65 230.04 66.65 159.92 103.07 177.89"/>
    <polygon class="cls-4" points="66.65 159.92 469.73 85.92 505.81 103.77 103.07 177.89 66.65 159.92"/>
  </g>
  <g>
    <polygon class="cls-1" points="319.15 338.84 536.46 310.99 536.46 218.51 319.15 246.59 319.15 338.84"/>
    <g>
      <polygon class="cls-7" points="371.02 255.6 371.02 313.25 339.17 316.4 339.17 258.74 371.02 255.56 371.02 255.6"/>
      <polygon class="cls-7" points="388.59 311.42 388.59 253.8 396.07 253.06 396.07 253 396.07 310.77 388.59 311.51 388.59 311.42"/>
      <polygon class="cls-7" points="407.16 309.67 423.16 308.08 423.16 250.29 423.16 250.35 407.15 251.95 407.15 309.6 407.16 309.67"/>
      <polygon class="cls-7" points="445.67 305.86 482.84 302.18 482.84 302.27 482.84 244.39 445.9 248.08 445.9 305.86 445.67 305.86"/>
      <polygon class="cls-7" points="498.67 242.86 498.67 300.61 515 298.99 515 241.18 498.67 242.81 498.67 242.86"/>
    </g>
  </g>
</svg>